# xmcd
#
# Track frame offsets:
#	150
#	23024
#	51565
#
# Disc length: 1232 seconds
# Revision: 0
# Processed by: cddbd v1.5.2PL0 Copyright (c) Steve Scherf et al.
# Submitted via: dBpowerAMP V12.0
#
DISCID=2004ce03
DTITLE=Alison Krauss and Union Station - Baby, Now That I've Found You
DYEAR=2003
DGENRE=Bluegrass
TTITLE0=Baby, Now That I've Found You (live)
TTITLE1=Baby, Now That I've Found You
TTITLE2=DATA
EXTD=
EXTT0=
EXTT1=
EXTT2=
PLAYORDER=
